<svg version="1.1" id="Layer_1" xmlns="http://www.w3.org/2000/svg" xmlns:xlink="http://www.w3.org/1999/xlink" x="0px" y="0px"
	 width="100%" viewBox="0 0 259 138" enable-background="new 0 0 259 138" xml:space="preserve">
<path fill="#000000" opacity="0.700000" stroke="none" rx="5" ry="5"
	d="
M138.000000,0.999999 
	C178.644135,1.000000 219.288269,1.000000 259.966187,1.000000 
	C259.966187,46.951969 259.966187,92.903969 259.966187,138.927979 
	C173.762558,138.927979 87.525032,138.927979 1.143754,138.927979 
	C1.143754,93.121719 1.143754,47.242836 1.143754,1.000000 
	C45.020226,1.000000 89.041458,1.000000 133.888245,1.233636 
	C132.990372,4.618866 131.506226,7.934330 129.486740,10.883192 
	C126.546005,15.177281 125.409081,22.009607 117.579025,20.228628 
	C117.186295,20.139299 116.575333,20.989258 116.072121,21.409218 
	C113.455963,23.592545 111.013275,27.222935 108.179008,27.559349 
	C105.308975,27.900005 102.054916,24.978119 98.961967,23.500124 
	C98.546059,23.301378 98.088692,23.189398 97.668037,23.043322 
	C89.614342,29.684641 81.588646,36.182716 73.732079,42.879208 
	C72.086433,44.281857 71.063873,46.415527 69.754189,48.212334 
	C70.213448,48.522087 70.672714,48.831844 71.131973,49.141598 
	C79.944496,41.845127 88.757011,34.548653 97.341286,27.441153 
	C102.132103,33.180782 102.889885,39.761539 100.624367,46.936954 
	C101.234459,47.228992 101.844543,47.521027 102.454636,47.813065 
	C108.088478,41.911716 113.722328,36.010365 119.390099,30.073484 
	C121.550140,34.109890 123.487923,37.730968 125.786171,42.025646 
	C133.383865,30.906897 135.277771,19.151628 136.953827,5.946076 
	C143.275696,13.255879 148.533203,19.334997 153.781326,25.403259 
	C150.904999,29.696600 144.385788,30.704044 142.914703,36.135010 
	C143.334366,36.564789 143.754028,36.994568 144.173691,37.424347 
	C148.890717,33.718681 153.607742,30.013012 158.513748,26.499439 
	C158.830048,26.818283 158.957352,26.945034 159.041412,27.431131 
	C154.673813,37.757698 143.510818,38.532410 136.676163,45.100864 
	C150.444656,42.088566 161.351166,35.389843 165.846786,20.663124 
	C174.248245,30.120600 182.074051,38.972954 189.988556,47.745281 
	C190.530777,48.346268 191.736847,48.348328 192.634186,48.628929 
	C192.552155,47.727165 192.818756,46.519974 192.336182,45.969120 
	C184.210480,36.693863 176.042969,27.453011 167.699432,18.374853 
	C166.999374,17.613165 164.604950,17.470528 163.640427,18.071606 
	C161.072647,19.671824 158.856064,21.835587 156.653397,23.648869 
	C152.933914,19.418642 149.269226,15.432992 145.819382,11.269311 
	C143.076675,7.959092 140.596649,4.431233 138.000000,0.999999 
M19.432316,93.843185 
	C20.370173,93.286263 21.308031,92.729340 22.967392,91.743973 
	C17.975731,89.866692 13.444794,87.989616 10.747576,92.145134 
	C8.987647,94.856598 9.576136,99.092354 8.947420,103.911850 
	C5.166167,106.628113 2.615031,113.089355 4.474216,117.985718 
	C7.039658,124.742096 11.257221,126.925941 19.940420,125.994072 
	C25.452831,125.402473 28.075180,121.102631 29.424486,110.439949 
	C30.939753,110.065323 32.455021,109.690689 33.970287,109.316063 
	C33.887749,109.064323 33.805210,108.812592 33.722672,108.560852 
	C29.210352,108.560852 24.698030,108.560852 20.185711,108.560852 
	C20.169117,108.896545 20.152523,109.232231 20.135931,109.567924 
	C21.967840,109.820732 23.799749,110.073532 25.583591,110.319702 
	C26.537716,118.456909 24.552126,122.235451 19.037519,122.993530 
	C12.488487,123.893814 7.834418,121.369011 7.022224,116.475334 
	C5.996326,110.294044 9.328963,106.236473 17.388111,104.295837 
	C16.795309,103.241074 16.447350,101.693626 15.714426,101.482491 
	C12.906301,100.673523 10.621746,99.234085 11.531054,96.196541 
	C12.571778,92.719994 15.695272,92.552246 19.432316,93.843185 
M62.155556,93.344353 
	C57.201336,97.393860 53.772003,102.614159 54.178417,108.978905 
	C54.638119,116.178062 58.034966,122.481934 65.308853,124.964233 
	C71.843826,127.194382 78.603737,127.243835 84.328171,122.247948 
	C85.041260,121.625603 85.374893,120.568466 85.884346,119.712791 
	C84.869057,119.699982 83.385002,119.244263 82.912521,119.744331 
	C79.084038,123.796165 74.118401,123.374908 69.472908,122.891541 
	C60.829632,121.992218 54.290077,111.245598 58.109589,103.510666 
	C62.908966,93.791435 73.133087,90.864227 82.343262,96.794258 
	C83.208931,97.351624 84.525703,97.208366 86.754021,97.574692 
	C79.991386,90.156921 71.275085,88.830437 62.155556,93.344353 
M253.989349,107.528358 
	C252.886841,108.018967 251.799606,108.887566 250.679123,108.932785 
	C246.498917,109.101501 242.307816,109.000191 238.120804,109.000191 
	C238.158447,109.554855 238.196091,110.109520 238.233734,110.664185 
	C244.751282,110.664185 251.268829,110.664185 257.846100,110.664185 
	C256.729584,104.754158 252.013336,100.222481 247.035004,100.001472 
	C238.072189,99.603569 232.567810,102.472122 231.029633,108.342529 
	C229.142929,115.543106 231.437531,121.682045 237.109360,124.608093 
	C243.260437,127.781372 250.244476,126.467232 254.424347,120.779053 
	C252.916962,120.836205 251.540436,121.247742 250.300385,121.913498 
	C244.957748,124.781799 237.532196,122.786331 234.209335,117.521774 
	C231.595139,113.379990 233.056503,108.265198 237.886505,104.651436 
	C242.124435,101.480675 248.899933,102.499207 253.989349,107.528358 
M132.788986,121.505119 
	C131.744247,121.288963 130.642044,120.745537 129.665344,120.917000 
	C126.526276,121.468102 123.429382,122.888084 120.323845,122.866646 
	C114.420631,122.825912 109.154686,115.210365 111.456909,110.185143 
	C113.191208,106.399574 115.947388,103.368477 120.671692,102.969345 
	C125.793068,102.536652 129.900467,103.809822 132.947357,109.654541 
	C126.811996,109.654541 121.462280,109.654541 116.112572,109.654541 
	C116.153160,109.988754 116.193748,110.322968 116.234344,110.657181 
	C122.753517,110.657181 129.272705,110.657181 135.865051,110.657181 
	C133.401367,99.790367 124.347527,98.452057 116.265953,100.889122 
	C109.823425,102.831909 107.842827,110.591660 108.421455,115.019989 
	C109.939453,126.637489 125.645332,129.830734 132.788986,121.505119 
M163.027786,106.548645 
	C168.197159,112.120445 164.638611,119.639343 167.327011,125.849037 
	C167.998734,121.869873 167.998932,117.957596 167.998688,114.045311 
	C167.998062,104.413399 163.459763,100.338951 153.725601,99.857346 
	C148.075027,99.577774 142.005417,103.781868 140.091766,112.117958 
	C138.904373,117.290337 143.765427,125.357277 149.344681,126.579041 
	C152.727097,127.319733 156.950211,128.613480 161.102097,123.998436 
	C157.512497,123.998436 155.254791,124.060738 153.001663,123.985764 
	C147.969345,123.818283 143.337250,119.171852 142.974060,114.252304 
	C142.603943,109.239265 145.257248,105.887123 149.306396,104.030678 
	C153.838348,101.952881 158.590515,101.994270 163.027786,106.548645 
M73.503098,77.004379 
	C70.582832,70.587090 67.662567,64.169807 64.163002,56.479496 
	C59.390514,67.124557 55.267410,76.321167 50.701004,86.506561 
	C56.880928,84.713951 55.347507,78.549477 58.418877,76.463654 
	C66.475082,74.650314 72.511482,75.916428 74.171448,84.989189 
	C74.256783,85.455574 75.772293,85.660301 77.520805,86.332306 
	C76.030258,82.729286 74.979385,80.189072 73.503098,77.004379 
M101.997871,61.742699 
	C101.849548,60.184860 101.701233,58.627026 101.552917,57.069187 
	C101.035965,57.120346 100.519012,57.171505 100.002060,57.222664 
	C100.002060,60.164719 100.124512,63.113113 99.972473,66.047287 
	C99.760544,70.137077 99.845955,74.339073 98.885483,78.268517 
	C97.710938,83.073715 92.917191,85.183563 87.894669,83.907684 
	C84.793739,83.119942 81.585548,78.068954 82.012428,74.646637 
	C82.503853,70.706734 86.661774,67.154099 90.885712,66.996986 
	C92.223885,66.947212 93.555847,66.730049 96.138504,66.458084 
	C89.997513,64.265320 86.367981,64.605591 83.487801,67.034698 
	C79.835312,70.115166 78.668381,76.115280 80.856796,80.562813 
	C83.180557,85.285423 88.139610,87.254234 94.480446,85.971565 
	C98.266197,85.205772 101.854919,80.661255 101.971619,76.195824 
	C102.089127,71.699219 101.997765,67.197174 101.997871,61.742699 
M220.504913,111.996056 
	C218.883301,115.183678 217.261703,118.371300 215.454163,121.924408 
	C212.170486,115.286354 209.150986,108.945053 205.872665,102.740524 
	C205.152527,101.377541 203.512161,100.500771 202.295547,99.400101 
	C202.037537,99.684402 201.779526,99.968704 201.521515,100.253006 
	C206.047668,109.156647 210.573837,118.060295 215.463501,127.679008 
	C220.495422,117.984940 225.072891,109.166428 229.650345,100.347916 
	C227.812119,100.352493 226.206726,100.985603 225.509842,102.158516 
	C223.763672,105.097382 222.428986,108.280731 220.504913,111.996056 
M31.104929,70.652771 
	C32.057110,75.712486 33.009293,80.772194 33.961472,85.831909 
	C34.645752,79.291443 37.165714,72.191711 31.048759,67.150635 
	C26.108847,63.079575 20.471586,64.439888 15.177052,67.409187 
	C15.004113,63.813488 14.842692,60.457294 14.681273,57.101105 
	C14.310937,57.150703 13.940600,57.200298 13.570265,57.249897 
	C13.570265,66.761589 13.570265,76.273285 13.570265,85.784981 
	C14.046425,85.795677 14.522586,85.806381 14.998746,85.817078 
	C14.998746,82.789551 15.154183,79.752151 14.962660,76.736786 
	C14.668446,72.104630 17.260740,68.815041 20.870300,67.338654 
	C24.081987,66.025009 28.149181,66.264687 31.104929,70.652771 
M182.127441,124.623108 
	C184.624146,125.169167 187.120850,125.715233 189.617554,126.261292 
	C186.123795,122.555183 181.209122,120.485649 179.375412,116.858521 
	C177.326904,112.806503 178.074280,107.341019 177.613022,102.575119 
	C180.281235,102.068481 182.128555,101.717712 183.975876,101.366951 
	C183.919510,101.027336 183.863144,100.687721 183.806793,100.348106 
	C181.933044,100.117645 180.059311,99.887177 178.452744,99.689575 
	C177.989151,96.115387 177.582962,92.983902 177.176788,89.852417 
	C176.668488,89.955978 176.160202,90.059540 175.651901,90.163094 
	C175.651901,98.507095 175.124832,106.901886 175.921585,115.169098 
	C176.223526,118.302094 179.576721,121.141014 182.127441,124.623108 
M145.011887,84.995811 
	C145.595703,84.001030 146.179504,83.006241 146.763321,82.011452 
	C146.401535,81.669846 146.039749,81.328239 145.677963,80.986626 
	C142.074570,85.181091 137.378204,85.310623 133.810867,82.587601 
	C131.601303,80.900993 130.028107,76.473099 130.500549,73.668442 
	C131.077469,70.243446 133.678207,66.836700 138.434250,66.965958 
	C142.466400,67.075546 145.369125,68.422058 146.606171,73.074554 
	C142.206299,73.074554 138.125793,73.074554 134.045288,73.074554 
	C134.051605,73.295250 134.057922,73.515938 134.064240,73.736633 
	C139.255905,73.736633 144.447571,73.736633 150.933838,73.736633 
	C148.540192,70.838058 147.117661,67.475426 144.842590,66.736084 
	C141.224548,65.560295 136.752640,65.159531 133.162720,66.210320 
	C128.493347,67.577072 127.695770,72.152573 127.939583,76.821449 
	C128.155457,80.955254 130.007263,84.119003 133.748672,85.057343 
	C137.056824,85.887039 140.732666,85.250710 145.011887,84.995811 
M251.750122,82.792915 
	C249.721695,83.193176 247.703568,83.861710 245.662781,83.940071 
	C240.823792,84.125885 239.005615,80.634346 238.082855,75.921577 
	C237.457443,72.727394 241.523422,67.602425 244.589523,67.018837 
	C249.393677,66.104439 252.838791,68.177803 254.355255,73.198090 
	C250.188660,73.198090 246.133240,73.198090 242.077805,73.198090 
	C242.083801,73.367683 242.089783,73.537270 242.095779,73.706863 
	C247.299301,73.706863 252.502838,73.706863 257.806519,73.706863 
	C255.417831,67.048958 252.319244,65.042130 245.661057,64.950043 
	C240.777924,64.882492 237.843994,67.518700 236.254150,71.543640 
	C234.389755,76.263664 236.318039,83.268181 240.540131,84.511536 
	C244.621262,85.713387 249.357132,84.748329 253.797226,84.550751 
	C254.101181,84.537231 254.336548,82.981735 254.603790,82.143356 
	C253.819260,82.165688 253.034729,82.188026 251.750122,82.792915 
M200.938049,84.982155 
	C208.471634,87.775932 214.868454,85.339386 217.094025,78.828331 
	C219.108139,72.935928 218.322006,66.161896 214.992493,65.067345 
	C214.992493,68.519211 215.009232,71.806587 214.988846,75.093735 
	C214.952133,81.009384 211.986710,84.045723 206.332092,83.989342 
	C200.970215,83.935890 198.077957,80.919350 198.003052,75.258545 
	C197.967819,72.596527 198.117996,69.924065 197.916550,67.276703 
	C197.849060,66.389854 196.952164,65.566109 196.434387,64.713516 
	C194.898636,72.200920 194.014374,79.257355 200.938049,84.982155 
M154.327408,75.199501 
	C154.323410,78.862930 152.724396,82.816505 156.250626,85.920403 
	C157.000366,82.274902 156.933655,78.695656 157.017548,75.119949 
	C157.118484,70.817680 160.068985,67.453796 163.980621,67.005722 
	C168.989029,66.432007 172.921295,68.661491 173.886475,73.088860 
	C174.578552,76.263458 174.627533,79.575806 175.016281,82.820358 
	C175.142929,83.877312 175.436554,84.914253 175.653809,85.960350 
	C176.092590,85.903412 176.531372,85.846474 176.970154,85.789536 
	C176.970154,81.996841 177.408661,78.140541 176.869858,74.426003 
	C176.009247,68.492928 171.015274,64.287537 164.624344,64.907829 
	C158.917084,65.461746 155.715530,68.200089 154.327408,75.199501 
M123.511414,66.027504 
	C120.894676,71.196404 118.277939,76.365303 115.480484,81.891190 
	C113.760246,78.431145 112.564407,75.156891 110.633148,72.397308 
	C108.868439,69.875702 109.283730,65.114487 103.977638,65.026955 
	C107.710762,72.414398 111.184357,79.288254 115.093491,87.024010 
	C119.008179,79.884300 122.445580,73.678909 125.734894,67.395988 
	C125.874985,67.128403 124.643486,66.142738 123.511414,66.027504 
M91.000092,119.429276 
	C91.000092,121.544128 91.000092,123.658989 91.000092,125.773842 
	C91.459061,125.925018 91.918037,126.076202 92.377007,126.227379 
	C92.916183,125.276268 93.851799,124.352776 93.920341,123.368881 
	C94.127518,120.395111 93.988853,117.397850 94.001923,114.409813 
	C94.027870,108.478455 97.084663,104.567535 102.773537,102.972061 
	C103.959373,102.639481 105.031891,101.902824 107.079491,100.900742 
	C99.747467,99.375107 93.863304,102.208847 92.227211,107.821762 
	C91.240448,111.207024 91.371384,114.918083 91.000092,119.429276 
M184.204681,78.625572 
	C184.832977,74.170517 181.724426,68.899338 185.651443,65.816254 
	C184.664719,62.778252 183.682373,59.753796 182.700043,56.729340 
	C181.992386,56.895676 181.284729,57.062012 180.577057,57.228348 
	C181.083679,64.532135 181.138046,71.905418 182.246033,79.116806 
	C183.069839,84.478577 188.987274,87.117645 191.957443,85.209938 
	C189.684982,83.312355 187.237869,81.268929 184.204681,78.625572 
M4.001536,61.777710 
	C4.002211,68.895081 3.939860,76.013680 4.079614,83.128319 
	C4.098049,84.066765 5.148147,84.984955 5.720438,85.912521 
	C6.146633,85.004280 6.930274,84.100845 6.942587,83.187027 
	C7.042923,75.739967 7.042465,68.290405 6.943784,60.843304 
	C6.931569,59.921448 6.163406,59.009605 5.745539,58.093124 
	C5.164884,59.008865 4.584230,59.924603 4.001536,61.777710 
M197.000000,105.672379 
	C196.685822,103.732750 196.371658,101.793121 196.057495,99.853500 
	C195.578751,99.962494 195.099991,100.071495 194.621246,100.180496 
	C192.725418,109.230042 193.799713,124.768456 197.000000,126.062645 
	C197.000000,119.433456 197.000000,113.033836 197.000000,105.672379 
M223.005188,72.854897 
	C222.576294,77.154419 222.147385,81.453949 221.718491,85.753471 
	C222.293701,85.924477 222.868927,86.095474 223.444138,86.266479 
	C223.958923,85.424744 224.851532,84.611595 224.917786,83.735931 
	C225.117401,81.097015 225.052094,78.432388 224.986893,75.780327 
	C224.862442,70.718147 227.254318,67.811134 232.245377,66.960625 
	C232.871765,66.853897 233.433243,66.366219 234.498550,65.805840 
	C228.513901,64.520874 226.187515,65.897789 223.005188,72.854897 
z"/>
<path fill="#1398D6" opacity="1.000000" stroke="none" 
	d="
M137.600006,0.999999 
	C140.596649,4.431233 143.076675,7.959092 145.819382,11.269311 
	C149.269226,15.432992 152.933914,19.418642 156.653397,23.648869 
	C158.856064,21.835587 161.072647,19.671824 163.640427,18.071606 
	C164.604950,17.470528 166.999374,17.613165 167.699432,18.374853 
	C176.042969,27.453011 184.210480,36.693863 192.336182,45.969120 
	C192.818756,46.519974 192.552155,47.727165 192.634186,48.628929 
	C191.736847,48.348328 190.530777,48.346268 189.988556,47.745281 
	C182.074051,38.972954 174.248245,30.120600 165.846786,20.663124 
	C161.351166,35.389843 150.444656,42.088566 136.676163,45.100864 
	C143.510818,38.532410 154.673813,37.757698 159.308899,27.315147 
	C159.668259,26.390038 159.716858,25.940264 159.765472,25.490486 
	C159.285233,25.762770 158.805008,26.035057 158.324768,26.307343 
	C153.607742,30.013012 148.890717,33.718681 144.173691,37.424347 
	C143.754028,36.994568 143.334366,36.564789 142.914703,36.135010 
	C144.385788,30.704044 150.904999,29.696600 153.781326,25.403259 
	C148.533203,19.334997 143.275696,13.255879 136.953827,5.946076 
	C135.277771,19.151628 133.383865,30.906897 125.786171,42.025646 
	C123.487923,37.730968 121.550140,34.109890 119.390099,30.073484 
	C113.722328,36.010365 108.088478,41.911716 102.454636,47.813065 
	C101.844543,47.521027 101.234459,47.228992 100.624367,46.936954 
	C102.889885,39.761539 102.132103,33.180782 97.341286,27.441153 
	C88.757011,34.548653 79.944496,41.845127 71.131973,49.141598 
	C70.672714,48.831844 70.213448,48.522087 69.754189,48.212334 
	C71.063873,46.415527 72.086433,44.281857 73.732079,42.879208 
	C81.588646,36.182716 89.614342,29.684641 97.668037,23.043322 
	C98.088692,23.189398 98.546059,23.301378 98.961967,23.500124 
	C102.054916,24.978119 105.308975,27.900005 108.179008,27.559349 
	C111.013275,27.222935 113.455963,23.592545 116.072121,21.409218 
	C116.575333,20.989258 117.186295,20.139299 117.579025,20.228628 
	C125.409081,22.009607 126.546005,15.177281 129.486740,10.883192 
	C131.506226,7.934330 132.990372,4.618866 134.356903,1.233636 
	C135.066666,1.000000 136.133347,1.000000 137.600006,0.999999 
M115.561378,25.951532 
	C113.689049,28.254858 111.816727,30.558186 110.255211,32.479149 
	C106.879875,30.935167 104.765251,29.967875 101.864082,28.640789 
	C103.102905,31.094795 104.120110,32.581001 104.607796,34.224350 
	C105.096832,35.872257 105.057632,37.676929 105.249947,39.412891 
	C105.692154,39.790878 106.134361,40.168865 106.576569,40.546852 
	C107.439621,39.142746 108.244041,37.697990 109.181564,36.345505 
	C110.199829,34.876534 111.355186,33.503330 112.427811,32.071171 
	C118.402901,24.093273 119.958504,24.192514 124.365578,32.820374 
	C124.698570,33.472282 125.167198,34.054913 126.582008,36.199684 
	C129.194138,27.599735 131.441757,20.199892 133.689362,12.800051 
	C133.181259,12.600360 132.673172,12.400669 132.165070,12.200979 
	C131.112488,14.134206 130.198456,16.161348 128.969055,17.974701 
	C127.696487,19.851774 127.036751,22.718193 123.704292,22.002682 
	C120.341820,21.280725 118.024773,22.956865 115.561378,25.951532 
z"/>
<path fill="#1298D5" opacity="1.000000" stroke="none" 
	d="
M19.128023,93.588181 
	C15.695272,92.552246 12.571778,92.719994 11.531054,96.196541 
	C10.621746,99.234085 12.906301,100.673523 15.714426,101.482491 
	C16.447350,101.693626 16.795309,103.241074 17.388111,104.295837 
	C9.328963,106.236473 5.996326,110.294044 7.022224,116.475334 
	C7.834418,121.369011 12.488487,123.893814 19.037519,122.993530 
	C24.552126,122.235451 26.537716,118.456909 25.583591,110.319702 
	C23.799749,110.073532 21.967840,109.820732 20.135931,109.567924 
	C20.152523,109.232231 20.169117,108.896545 20.185711,108.560852 
	C24.698030,108.560852 29.210352,108.560852 33.722672,108.560852 
	C33.805210,108.812592 33.887749,109.064323 33.970287,109.316063 
	C32.455021,109.690689 30.939753,110.065323 29.425093,110.440536 
	C28.075180,121.102631 25.452831,125.402473 19.940420,125.994072 
	C11.257221,126.925941 7.039658,124.742096 4.474216,117.985718 
	C2.615031,113.089355 5.166167,106.628113 8.947420,103.911850 
	C9.576136,99.092354 8.987647,94.856598 10.747576,92.145134 
	C13.444794,87.989616 17.975731,89.866692 22.967392,91.743973 
	C21.308031,92.729340 20.370173,93.286263 19.128023,93.588181 
z"/>
<path fill="#1398D5" opacity="1.000000" stroke="none" 
	d="
M62.505928,93.182663 
	C71.275085,88.830437 79.991386,90.156921 86.754021,97.574692 
	C84.525703,97.208366 83.208931,97.351624 82.343262,96.794258 
	C73.133087,90.864227 62.908966,93.791435 58.109589,103.510666 
	C54.290077,111.245598 60.829632,121.992218 69.472908,122.891541 
	C74.118401,123.374908 79.084038,123.796165 82.912521,119.744331 
	C83.385002,119.244263 84.869057,119.699982 85.884354,119.712791 
	C85.374893,120.568466 85.041260,121.625603 84.328171,122.247948 
	C78.603737,127.243835 71.843826,127.194382 65.308853,124.964233 
	C58.034966,122.481934 54.638119,116.178062 54.178417,108.978905 
	C53.772003,102.614159 57.201336,97.393860 62.505928,93.182663 
z"/>
<path fill="#1398D5" opacity="1.000000" stroke="none" 
	d="
M253.725708,107.260590 
	C248.899933,102.499207 242.124435,101.480675 237.886505,104.651436 
	C233.056503,108.265198 231.595139,113.379990 234.209335,117.521774 
	C237.532196,122.786331 244.957748,124.781799 250.300385,121.913498 
	C251.540436,121.247742 252.916962,120.836205 254.424347,120.779053 
	C250.244476,126.467232 243.260437,127.781372 237.109360,124.608093 
	C231.437531,121.682045 229.142929,115.543106 231.029633,108.342529 
	C232.567810,102.472122 238.072189,99.603569 247.035004,100.001472 
	C252.013336,100.222481 256.729584,104.754158 257.846100,110.664185 
	C251.268829,110.664185 244.751282,110.664185 238.233734,110.664185 
	C238.196091,110.109520 238.158447,109.554855 238.120804,109.000191 
	C242.307816,109.000191 246.498917,109.101501 250.679123,108.932785 
	C251.799606,108.887566 252.886841,108.018967 253.725708,107.260590 
z"/>
<path fill="#1398D5" opacity="1.000000" stroke="none" 
	d="
M132.566772,121.795364 
	C125.645332,129.830734 109.939453,126.637489 108.421455,115.019989 
	C107.842827,110.591660 109.823425,102.831909 116.265953,100.889122 
	C124.347527,98.452057 133.401367,99.790367 135.865051,110.657181 
	C129.272705,110.657181 122.753517,110.657181 116.234344,110.657181 
	C116.193748,110.322968 116.153160,109.988754 116.112572,109.654541 
	C121.462280,109.654541 126.811996,109.654541 132.947357,109.654541 
	C129.900467,103.809822 125.793068,102.536652 120.671692,102.969345 
	C115.947388,103.368477 113.191208,106.399574 111.456909,110.185143 
	C109.154686,115.210365 114.420631,122.825912 120.323845,122.866646 
	C123.429382,122.888084 126.526276,121.468102 129.665344,120.917000 
	C130.642044,120.745537 131.744247,121.288963 132.566772,121.795364 
z"/>
<path fill="#1398D5" opacity="1.000000" stroke="none" 
	d="
M162.755066,106.268707 
	C158.590515,101.994270 153.838348,101.952881 149.306396,104.030678 
	C145.257248,105.887123 142.603943,109.239265 142.974060,114.252304 
	C143.337250,119.171852 147.969345,123.818283 153.001663,123.985764 
	C155.254791,124.060738 157.512497,123.998436 161.102097,123.998436 
	C156.950211,128.613480 152.727097,127.319733 149.344681,126.579041 
	C143.765427,125.357277 138.904373,117.290337 140.091766,112.117958 
	C142.005417,103.781868 148.075027,99.577774 153.725601,99.857346 
	C163.459763,100.338951 167.998062,104.413399 167.998688,114.045311 
	C167.998932,117.957596 167.998734,121.869873 167.327011,125.849037 
	C164.638611,119.639343 168.197159,112.120445 162.755066,106.268707 
z"/>
<path fill="#1298D5" opacity="1.000000" stroke="none" 
	d="
M73.715805,77.326614 
	C74.979385,80.189072 76.030258,82.729286 77.520805,86.332306 
	C75.772293,85.660301 74.256783,85.455574 74.171448,84.989189 
	C72.511482,75.916428 66.475082,74.650314 58.418877,76.463654 
	C55.347507,78.549477 56.880928,84.713951 50.701004,86.506561 
	C55.267410,76.321167 59.390514,67.124557 64.163002,56.479496 
	C67.662567,64.169807 70.582832,70.587090 73.715805,77.326614 
M62.846947,74.999619 
	C64.793709,74.999619 66.740479,74.999619 69.390846,74.999619 
	C67.678604,71.033165 66.208199,67.626923 64.232727,63.050667 
	C62.497749,67.199539 61.156490,70.240509 60.041317,73.362244 
	C59.942921,73.637688 61.321808,74.440857 62.846947,74.999619 
z"/>
<path fill="#1298D5" opacity="1.000000" stroke="none" 
	d="
M101.997902,62.220104 
	C101.997765,67.197174 102.089127,71.699219 101.971619,76.195824 
	C101.854919,80.661255 98.266197,85.205772 94.480446,85.971565 
	C88.139610,87.254234 83.180557,85.285423 80.856796,80.562813 
	C78.668381,76.115280 79.835312,70.115166 83.487801,67.034698 
	C86.367981,64.605591 89.997513,64.265320 96.138504,66.458084 
	C93.555847,66.730049 92.223885,66.947212 90.885712,66.996986 
	C86.661774,67.154099 82.503853,70.706734 82.012428,74.646637 
	C81.585548,78.068954 84.793739,83.119942 87.894669,83.907684 
	C92.917191,85.183563 97.710938,83.073715 98.885483,78.268517 
	C99.845955,74.339073 99.760544,70.137077 99.972473,66.047287 
	C100.124512,63.113113 100.002060,60.164719 100.002060,57.222664 
	C100.519012,57.171505 101.035965,57.120346 101.552917,57.069187 
	C101.701233,58.627026 101.849548,60.184860 101.997902,62.220104 
z"/>
<path fill="#1398D5" opacity="1.000000" stroke="none" 
	d="
M220.717072,111.681030 
	C222.428986,108.280731 223.763672,105.097382 225.509842,102.158516 
	C226.206726,100.985603 227.812119,100.352493 229.650345,100.347916 
	C225.072891,109.166428 220.495422,117.984940 215.463501,127.679008 
	C210.573837,118.060295 206.047668,109.156647 201.521515,100.253006 
	C201.779526,99.968704 202.037537,99.684402 202.295547,99.400101 
	C203.512161,100.500771 205.152527,101.377541 205.872665,102.740524 
	C209.150986,108.945053 212.170486,115.286354 215.454163,121.924408 
	C217.261703,118.371300 218.883301,115.183678 220.717072,111.681030 
z"/>
<path fill="#1298D5" opacity="1.000000" stroke="none" 
	d="
M30.837276,70.353218 
	C28.149181,66.264687 24.081987,66.025009 20.870300,67.338654 
	C17.260740,68.815041 14.668446,72.104630 14.962660,76.736786 
	C15.154183,79.752151 14.998746,82.789551 14.998746,85.817078 
	C14.522586,85.806381 14.046425,85.795677 13.570265,85.784981 
	C13.570265,76.273285 13.570265,66.761589 13.570265,57.249897 
	C13.940600,57.200298 14.310937,57.150703 14.681273,57.101105 
	C14.842692,60.457294 15.004113,63.813488 15.177052,67.409187 
	C20.471586,64.439888 26.108847,63.079575 31.048759,67.150635 
	C37.165714,72.191711 34.645752,79.291443 33.961472,85.831909 
	C33.009293,80.772194 32.057110,75.712486 30.837276,70.353218 
z"/>
<path fill="#1398D5" opacity="1.000000" stroke="none" 
	d="
M181.833282,124.368546 
	C179.576721,121.141014 176.223526,118.302094 175.921585,115.169098 
	C175.124832,106.901886 175.651901,98.507095 175.651901,90.163094 
	C176.160202,90.059540 176.668488,89.955978 177.176788,89.852417 
	C177.582962,92.983902 177.989151,96.115387 178.452744,99.689575 
	C180.059311,99.887177 181.933044,100.117645 183.806793,100.348106 
	C183.863144,100.687721 183.919510,101.027336 183.975876,101.366951 
	C182.128555,101.717712 180.281235,102.068481 177.613022,102.575119 
	C178.074280,107.341019 177.326904,112.806503 179.375412,116.858521 
	C181.209122,120.485649 186.123795,122.555183 189.617554,126.261292 
	C187.120850,125.715233 184.624146,125.169167 181.833282,124.368546 
z"/>
<path fill="#1198D6" opacity="1.000000" stroke="none" 
	d="
M144.629028,85.128723 
	C140.732666,85.250710 137.056824,85.887039 133.748672,85.057343 
	C130.007263,84.119003 128.155457,80.955254 127.939583,76.821449 
	C127.695770,72.152573 128.493347,67.577072 133.162720,66.210320 
	C136.752640,65.159531 141.224548,65.560295 144.842590,66.736084 
	C147.117661,67.475426 148.540192,70.838058 150.933838,73.736633 
	C144.447571,73.736633 139.255905,73.736633 134.064240,73.736633 
	C134.057922,73.515938 134.051605,73.295250 134.045288,73.074554 
	C138.125793,73.074554 142.206299,73.074554 146.606171,73.074554 
	C145.369125,68.422058 142.466400,67.075546 138.434250,66.965958 
	C133.678207,66.836700 131.077469,70.243446 130.500549,73.668442 
	C130.028107,76.473099 131.601303,80.900993 133.810867,82.587601 
	C137.378204,85.310623 142.074570,85.181091 145.677963,80.986626 
	C146.039749,81.328239 146.401535,81.669846 146.763321,82.011452 
	C146.179504,83.006241 145.595703,84.001030 144.629028,85.128723 
z"/>
<path fill="#1198D6" opacity="1.000000" stroke="none" 
	d="
M252.000153,82.501640 
	C253.034729,82.188026 253.819260,82.165688 254.603790,82.143356 
	C254.336548,82.981735 254.101181,84.537231 253.797226,84.550751 
	C249.357132,84.748329 244.621262,85.713387 240.540131,84.511536 
	C236.318039,83.268181 234.389755,76.263664 236.254150,71.543640 
	C237.843994,67.518700 240.777924,64.882492 245.661057,64.950043 
	C252.319244,65.042130 255.417831,67.048958 257.806519,73.706863 
	C252.502838,73.706863 247.299301,73.706863 242.095779,73.706863 
	C242.089783,73.537270 242.083801,73.367683 242.077805,73.198090 
	C246.133240,73.198090 250.188660,73.198090 254.355255,73.198090 
	C252.838791,68.177803 249.393677,66.104439 244.589523,67.018837 
	C241.523422,67.602425 237.457443,72.727394 238.082855,75.921577 
	C239.005615,80.634346 240.823792,84.125885 245.662781,83.940071 
	C247.703568,83.861710 249.721695,83.193176 252.000153,82.501640 
z"/>
<path fill="#1299D6" opacity="1.000000" stroke="none" 
	d="
M200.568497,84.826355 
	C194.014374,79.257355 194.898636,72.200920 196.434387,64.713516 
	C196.952164,65.566109 197.849060,66.389854 197.916550,67.276703 
	C198.117996,69.924065 197.967819,72.596527 198.003052,75.258545 
	C198.077957,80.919350 200.970215,83.935890 206.332092,83.989342 
	C211.986710,84.045723 214.952133,81.009384 214.988846,75.093735 
	C215.009232,71.806587 214.992493,68.519211 214.992493,65.067345 
	C218.322006,66.161896 219.108139,72.935928 217.094025,78.828331 
	C214.868454,85.339386 208.471634,87.775932 200.568497,84.826355 
z"/>
<path fill="#1398D5" opacity="1.000000" stroke="none" 
	d="
M154.599777,74.864609 
	C155.715530,68.200089 158.917084,65.461746 164.624344,64.907829 
	C171.015274,64.287537 176.009247,68.492928 176.869858,74.426003 
	C177.408661,78.140541 176.970154,81.996841 176.970154,85.789536 
	C176.531372,85.846474 176.092590,85.903412 175.653809,85.960350 
	C175.436554,84.914253 175.142929,83.877312 175.016281,82.820358 
	C174.627533,79.575806 174.578552,76.263458 173.886475,73.088860 
	C172.921295,68.661491 168.989029,66.432007 163.980621,67.005722 
	C160.068985,67.453796 157.118484,70.817680 157.017548,75.119949 
	C156.933655,78.695656 157.000366,82.274902 156.250626,85.920403 
	C152.724396,82.816505 154.323410,78.862930 154.599777,74.864609 
z"/>
<path fill="#1298D5" opacity="1.000000" stroke="none" 
	d="
M123.781174,65.759552 
	C124.643486,66.142738 125.874985,67.128403 125.734894,67.395988 
	C122.445580,73.678909 119.008179,79.884300 115.093491,87.024010 
	C111.184357,79.288254 107.710762,72.414398 103.977638,65.026955 
	C109.283730,65.114487 108.868439,69.875702 110.633148,72.397308 
	C112.564407,75.156891 113.760246,78.431145 115.480484,81.891190 
	C118.277939,76.365303 120.894676,71.196404 123.781174,65.759552 
z"/>
<path fill="#1398D5" opacity="1.000000" stroke="none" 
	d="
M91.000092,118.956009 
	C91.371384,114.918083 91.240448,111.207024 92.227211,107.821762 
	C93.863304,102.208847 99.747467,99.375107 107.079491,100.900742 
	C105.031891,101.902824 103.959373,102.639481 102.773537,102.972061 
	C97.084663,104.567535 94.027870,108.478455 94.001923,114.409813 
	C93.988853,117.397850 94.127518,120.395111 93.920341,123.368881 
	C93.851799,124.352776 92.916183,125.276268 92.377007,126.227379 
	C91.918037,126.076202 91.459061,125.925018 91.000092,125.773842 
	C91.000092,123.658989 91.000092,121.544128 91.000092,118.956009 
z"/>
<path fill="#1397D5" opacity="1.000000" stroke="none" 
	d="
M184.497711,78.925537 
	C187.237869,81.268929 189.684982,83.312355 191.957443,85.209938 
	C188.987274,87.117645 183.069839,84.478577 182.246033,79.116806 
	C181.138046,71.905418 181.083679,64.532135 180.577057,57.228348 
	C181.284729,57.062012 181.992386,56.895676 182.700043,56.729340 
	C183.682373,59.753796 184.664719,62.778252 185.651443,65.816254 
	C181.724426,68.899338 184.832977,74.170517 184.497711,78.925537 
z"/>
<path fill="#1398D7" opacity="1.000000" stroke="none" 
	d="
M4.002556,61.309029 
	C4.584230,59.924603 5.164884,59.008865 5.745539,58.093124 
	C6.163406,59.009605 6.931569,59.921448 6.943784,60.843304 
	C7.042465,68.290405 7.042923,75.739967 6.942587,83.187027 
	C6.930274,84.100845 6.146633,85.004280 5.720439,85.912521 
	C5.148147,84.984955 4.098049,84.066765 4.079614,83.128319 
	C3.939860,76.013680 4.002211,68.895081 4.002556,61.309029 
z"/>
<path fill="#1498D6" opacity="1.000000" stroke="none" 
	d="
M197.000000,106.153297 
	C197.000000,113.033836 197.000000,119.433456 197.000000,126.062645 
	C193.799713,124.768456 192.725418,109.230042 194.621246,100.180496 
	C195.099991,100.071495 195.578751,99.962494 196.057495,99.853500 
	C196.371658,101.793121 196.685822,103.732750 197.000000,106.153297 
z"/>
<path fill="#1498D6" opacity="1.000000" stroke="none" 
	d="
M223.025848,72.443398 
	C226.187515,65.897789 228.513901,64.520874 234.498550,65.805840 
	C233.433243,66.366219 232.871765,66.853897 232.245377,66.960625 
	C227.254318,67.811134 224.862442,70.718147 224.986893,75.780327 
	C225.052094,78.432388 225.117401,81.097015 224.917786,83.735931 
	C224.851532,84.611595 223.958923,85.424744 223.444138,86.266479 
	C222.868927,86.095474 222.293701,85.924477 221.718491,85.753471 
	C222.147385,81.453949 222.576294,77.154419 223.025848,72.443398 
z"/>
<path fill="#000000" opacity="1.000000" stroke="none" 
	d="
M115.813568,25.680584 
	C118.024773,22.956865 120.341820,21.280725 123.704292,22.002682 
	C127.036751,22.718193 127.696487,19.851774 128.969055,17.974701 
	C130.198456,16.161348 131.112488,14.134206 132.165070,12.200979 
	C132.673172,12.400669 133.181259,12.600360 133.689362,12.800051 
	C131.441757,20.199892 129.194138,27.599735 126.582008,36.199684 
	C125.167198,34.054913 124.698570,33.472282 124.365578,32.820374 
	C119.958504,24.192514 118.402901,24.093273 112.427811,32.071171 
	C111.355186,33.503330 110.199829,34.876534 109.181564,36.345505 
	C108.244041,37.697990 107.439621,39.142746 106.576569,40.546852 
	C106.134361,40.168865 105.692154,39.790878 105.249947,39.412891 
	C105.057632,37.676929 105.096832,35.872257 104.607796,34.224350 
	C104.120110,32.581001 103.102905,31.094795 101.864082,28.640789 
	C104.765251,29.967875 106.879875,30.935167 110.255211,32.479149 
	C111.816727,30.558186 113.689049,28.254858 115.813568,25.680584 
z"/>
<path fill="#000000" opacity="1.000000" stroke="none" 
	d="
M158.513748,26.499439 
	C158.805008,26.035057 159.285233,25.762770 159.765472,25.490486 
	C159.716858,25.940264 159.668259,26.390038 159.352142,26.955799 
	C158.957352,26.945034 158.830048,26.818283 158.513748,26.499439 
z"/>
<path fill="#000000" opacity="1.000000" stroke="none" 
	d="
M62.430748,74.999268 
	C61.321808,74.440857 59.942921,73.637688 60.041317,73.362244 
	C61.156490,70.240509 62.497749,67.199539 64.232727,63.050667 
	C66.208199,67.626923 67.678604,71.033165 69.390846,74.999619 
	C66.740479,74.999619 64.793709,74.999619 62.430748,74.999268 
z"/>
</svg>